<?xml version="1.0" standalone="no"?>
<!DOCTYPE svg PUBLIC "-//W3C//DTD SVG 20010904//EN"
 "http://www.w3.org/TR/2001/REC-SVG-20010904/DTD/svg10.dtd">
<svg version="1.0" xmlns="http://www.w3.org/2000/svg"
 width="1024.000000pt" height="1024.000000pt" viewBox="0 0 1024.000000 1024.000000"
 preserveAspectRatio="xMidYMid meet">

<g transform="translate(0.000000,1024.000000) scale(0.100000,-0.100000)"
fill="#000000" stroke="none">
<path d="M4884 8616 c-56 -26 -98 -74 -120 -133 -16 -45 -18 -183 -4 -234 23
-83 106 -162 183 -173 148 -22 254 74 265 240 9 138 -48 258 -143 303 -59 27
-118 27 -181 -3z m173 -38 c42 -40 58 -102 58 -233 0 -106 -3 -126 -24 -168
-35 -72 -92 -94 -164 -63 -42 17 -62 48 -81 124 -28 107 -15 252 29 318 36 55
134 67 182 22z"/>
<path d="M4874 8355 c0 -49 1 -71 3 -48 2 23 2 64 0 90 -2 26 -3 8 -3 -42z"/>
<path d="M4505 8588 c-27 -5 -61 -11 -74 -14 l-24 -5 26 -25 c16 -15 27 -36
28 -52 0 -15 6 -54 13 -87 8 -34 10 -64 5 -70 -13 -14 -98 -34 -146 -35 -41 0
-41 0 -48 43 -3 23 -11 63 -17 90 -8 39 -7 52 6 72 9 13 16 28 16 33 0 9 -137
-12 -148 -23 -3 -2 5 -12 16 -22 15 -12 27 -42 37 -91 21 -102 19 -119 -12
-147 -16 -13 -25 -27 -20 -31 4 -4 13 -2 19 4 31 31 45 2 68 -136 10 -54 9
-67 -5 -89 -21 -32 -15 -37 32 -24 21 6 55 13 76 16 42 7 48 20 13 29 -20 5
-25 16 -40 88 -9 46 -16 98 -16 116 0 30 2 32 38 32 20 1 60 7 87 14 48 13 51
13 61 -8 20 -37 39 -195 26 -208 -16 -16 -15 -38 1 -34 6 2 41 10 76 17 l64
12 -25 21 c-21 17 -28 39 -43 116 -9 52 -24 131 -32 175 -8 44 -18 100 -23
125 -7 35 -5 50 6 68 22 34 15 39 -41 30z"/>
<path d="M5856 8541 c15 -25 16 -38 6 -93 -62 -359 -64 -366 -105 -393 -29
-19 -67 -12 -93 16 -21 24 -30 107 -15 150 6 18 9 35 6 38 -3 2 -31 -7 -61
-22 -41 -20 -53 -31 -46 -40 5 -7 12 -29 16 -49 14 -76 92 -128 193 -128 51 0
83 11 115 42 21 19 25 32 25 78 0 30 12 123 27 205 25 133 31 152 54 172 31
25 29 26 -62 43 -80 14 -79 14 -60 -19z"/>
<path d="M3920 8441 c-8 -5 -49 -11 -91 -14 -90 -6 -124 -22 -172 -78 -116
-135 -39 -421 130 -485 79 -30 198 2 245 67 23 30 33 93 24 143 -11 57 -26 42
-26 -24 0 -72 -19 -113 -63 -140 -61 -37 -144 -15 -197 52 -34 44 -77 149 -90
218 -20 110 4 179 73 205 39 15 48 15 78 2 36 -15 88 -62 90 -81 1 -6 5 7 9
29 4 22 10 57 15 78 7 37 2 43 -25 28z"/>
<path d="M6260 8431 c-96 -30 -159 -102 -194 -222 -54 -181 44 -333 214 -333
54 0 72 4 108 27 52 34 96 100 122 186 46 148 5 272 -105 321 -50 22 -112 31
-145 21z m138 -51 c69 -42 76 -118 27 -266 -50 -151 -110 -213 -195 -201 -106
14 -134 113 -78 282 56 171 151 243 246 185z"/>
<path d="M6162 8100 c0 -14 2 -19 5 -12 2 6 2 18 0 25 -3 6 -5 1 -5 -13z"/>
<path d="M3333 8231 c-29 -14 -53 -28 -53 -31 0 -3 15 -12 32 -20 27 -12 43
-37 95 -140 34 -69 62 -131 63 -138 0 -8 9 -26 21 -40 35 -45 2 -37 -66 14
-35 27 -112 84 -170 128 -101 75 -107 80 -101 108 3 16 2 28 -2 26 -64 -31
-142 -74 -142 -79 0 -4 10 -9 23 -11 17 -2 38 -35 104 -163 101 -197 121 -254
104 -291 -6 -15 -10 -29 -7 -31 2 -3 34 11 70 30 65 34 74 47 30 47 -34 0 -69
50 -143 200 -85 170 -86 173 -62 161 10 -6 23 -17 31 -25 7 -9 17 -16 22 -16
7 0 232 -162 334 -242 15 -11 64 10 64 28 0 7 -43 100 -96 206 -93 191 -108
236 -91 286 10 27 6 26 -60 -7z"/>
<path d="M6770 8202 c-49 -26 -83 -93 -77 -151 5 -41 13 -52 95 -131 93 -90
110 -120 97 -179 -21 -95 -163 -89 -234 10 -25 33 -31 52 -31 91 l0 49 -55
-38 c-30 -21 -54 -41 -55 -45 0 -4 9 -10 20 -13 12 -4 47 -28 78 -54 100 -82
119 -93 181 -98 76 -7 123 14 156 72 48 81 30 141 -73 240 -107 103 -124 158
-63 206 70 56 202 -30 189 -123 -3 -16 -2 -30 1 -32 3 -2 29 16 56 40 41 35
46 44 29 44 -12 0 -37 14 -55 30 -100 89 -192 118 -259 82z"/>
<path d="M3711 8194 c0 -11 3 -14 6 -6 3 7 2 16 -1 19 -3 4 -6 -2 -5 -13z"/>
<path d="M5921 8134 c0 -11 3 -14 6 -6 3 7 2 16 -1 19 -3 4 -6 -2 -5 -13z"/>
<path d="M6858 8143 c6 -2 18 -2 25 0 6 3 1 5 -13 5 -14 0 -19 -2 -12 -5z"/>
<path d="M7284 7965 c5 -11 10 -27 13 -35 2 -8 -19 -48 -48 -88 -50 -72 -52
-73 -88 -68 -46 8 -76 -8 -32 -17 18 -4 31 -13 31 -21 0 -12 -72 -126 -113
-178 -7 -9 -26 -18 -42 -20 -27 -3 -15 -14 148 -135 97 -73 179 -133 181 -133
1 0 4 31 4 70 l2 69 -26 -9 c-45 -18 -88 -11 -135 19 -62 42 -79 57 -79 69 0
12 128 192 137 192 2 0 24 -14 49 -30 29 -21 44 -38 44 -53 0 -23 16 -55 23
-47 2 3 21 29 42 59 30 42 35 53 20 47 -53 -20 -71 -18 -104 13 -18 17 -37 31
-42 31 -5 0 -9 5 -9 11 0 18 104 159 118 159 20 0 105 -68 126 -101 11 -19 17
-42 14 -63 -2 -19 -1 -34 2 -32 3 1 16 7 30 14 14 6 39 17 55 23 l30 11 -26
21 c-32 27 -263 196 -304 223 -29 19 -29 19 -21 -1z"/>
<path d="M2603 7807 c-66 -44 -77 -64 -41 -69 18 -2 26 -15 39 -67 9 -35 20
-81 23 -102 6 -38 6 -39 -25 -39 -24 0 -30 -3 -25 -16 3 -9 6 -22 6 -31 0 -11
7 -13 28 -8 39 8 48 -5 68 -108 14 -70 15 -97 6 -135 -6 -26 -9 -48 -8 -49 4
-4 122 82 125 91 1 4 -12 17 -29 27 -33 21 -64 78 -75 142 -7 35 5 51 20 27 4
-6 10 -8 15 -5 5 3 26 -1 46 -10 57 -24 64 -20 64 28 0 23 4 48 9 56 10 15 27
8 99 -42 38 -25 43 -33 40 -58 -3 -16 -1 -29 4 -29 4 0 38 21 74 48 l66 47
-34 6 c-31 5 -140 73 -196 123 l-22 20 22 23 23 24 -25 19 c-32 25 -34 25 -50
-7 -8 -16 -15 -29 -16 -31 -1 -2 -37 21 -80 51 -64 44 -80 60 -84 86 l-5 30
-62 -42z m54 -117 c3 -11 10 -17 15 -14 5 3 39 -13 74 -37 59 -40 64 -47 60
-74 -6 -42 -11 -64 -17 -69 -7 -8 -106 24 -117 37 -9 11 -42 142 -42 166 0 19
22 12 27 -9z"/>
<path d="M7780 7569 c0 -29 -10 -46 -64 -103 -56 -60 -66 -67 -84 -57 -11 6
-31 11 -44 11 -22 -1 -22 -1 5 -16 15 -8 27 -19 27 -25 0 -9 -35 -49 -128
-145 -7 -8 -32 -14 -55 -14 l-41 0 59 -60 c66 -66 83 -74 78 -32 -3 22 9 41
67 105 40 42 77 77 84 77 7 0 26 -15 43 -32 24 -25 33 -44 35 -78 l3 -45 48
49 c26 27 47 52 47 57 0 5 -18 9 -41 9 -34 0 -47 6 -76 35 l-35 35 63 68 c34
37 68 70 74 74 16 10 112 -91 121 -126 3 -15 4 -40 0 -56 -3 -17 -3 -30 1 -30
16 0 113 34 112 39 -1 3 -69 71 -150 151 l-149 144 0 -35z"/>
<path d="M2149 7417 c-69 -26 -145 -100 -188 -184 -26 -52 -27 -66 -3 -59 14
5 36 -13 90 -73 40 -44 72 -84 72 -89 0 -5 -7 -12 -15 -16 -18 -6 -20 -32 -4
-42 7 -4 19 3 29 15 l16 23 62 -64 c50 -51 62 -69 62 -95 0 -18 3 -33 6 -33 9
0 104 93 104 102 0 4 -10 8 -23 8 -16 0 -42 20 -78 58 -88 93 -85 86 -52 131
15 23 33 41 40 41 25 0 107 -42 194 -100 50 -34 94 -58 98 -53 11 12 44 104
39 108 -2 3 -41 12 -85 20 -86 16 -188 48 -208 65 -9 8 -7 23 8 68 24 67 19
98 -21 143 -32 36 -88 46 -143 26z m86 -88 c24 -24 30 -37 29 -72 -1 -56 -62
-167 -91 -167 -9 0 -141 142 -156 167 -10 16 49 82 88 99 42 19 94 8 130 -27z"/>
<path d="M2362 7310 c0 -19 2 -27 5 -17 2 9 2 25 0 35 -3 9 -5 1 -5 -18z"/>
<path d="M4862 7319 c-12 -5 -25 -15 -28 -24 -4 -9 -19 -15 -40 -15 -18 0 -48
-9 -66 -20 -18 -11 -41 -20 -50 -20 -9 0 -23 -8 -30 -18 -15 -21 -53 -33 -117
-36 -28 -2 -47 -8 -53 -19 -5 -9 -19 -17 -32 -17 -21 0 -92 -47 -107 -71 -3
-5 -29 -12 -57 -16 -31 -3 -58 -13 -68 -24 -10 -11 -30 -19 -46 -19 -23 0 -31
-6 -40 -30 -7 -20 -19 -32 -36 -36 -52 -11 -84 -27 -98 -50 -12 -18 -24 -22
-59 -21 -29 1 -49 -4 -63 -16 -10 -10 -42 -20 -70 -24 -31 -3 -58 -13 -68 -24
-10 -11 -26 -19 -36 -19 -10 0 -31 -9 -46 -20 -15 -11 -49 -23 -77 -26 -27 -4
-57 -12 -65 -19 -8 -7 -37 -16 -63 -20 -28 -4 -56 -16 -67 -27 -12 -13 -34
-21 -65 -23 -31 -2 -54 -10 -69 -24 -12 -12 -34 -21 -48 -21 -14 0 -33 -9 -43
-20 -10 -11 -29 -20 -42 -20 -14 0 -36 -9 -50 -20 -14 -11 -32 -20 -39 -20
-19 0 -164 -152 -164 -172 0 -10 -8 -26 -19 -37 -10 -10 -21 -36 -24 -57 -8
-59 -17 -96 -33 -131 -8 -17 -14 -51 -14 -75 0 -25 -7 -54 -17 -68 -15 -21
-19 -55 -23 -191 -4 -144 -8 -170 -24 -187 -10 -12 -20 -41 -22 -68 -2 -25 -9
-53 -15 -60 -9 -11 -61 -14 -262 -14 -241 0 -252 1 -273 21 -14 13 -36 21 -59
21 -23 0 -45 -8 -59 -21 -21 -19 -34 -21 -179 -21 -146 0 -158 -1 -169 -20
-11 -17 -24 -20 -83 -20 -49 0 -78 -5 -94 -17 -19 -13 -27 -14 -43 -4 -16 10
-23 9 -39 -5 -10 -9 -42 -19 -70 -22 -32 -3 -59 -12 -70 -23 -11 -11 -28 -19
-40 -19 -12 0 -34 -11 -51 -25 -16 -14 -40 -25 -54 -25 -13 0 -38 -9 -56 -20
-18 -11 -44 -20 -56 -20 -13 0 -35 -9 -49 -20 -14 -11 -34 -20 -45 -20 -10 0
-40 -20 -66 -45 -26 -25 -56 -45 -68 -45 -12 0 -29 -11 -38 -25 -12 -17 -25
-25 -46 -25 -24 0 -33 -6 -41 -26 -5 -15 -40 -56 -77 -91 -89 -86 -81 -78
-128 -126 -23 -23 -47 -53 -54 -67 -7 -14 -21 -31 -32 -38 -10 -7 -18 -23 -18
-34 0 -12 -10 -32 -21 -44 -13 -14 -23 -41 -26 -71 -3 -26 -11 -55 -18 -63 -7
-8 -15 -39 -17 -68 -4 -39 -11 -57 -27 -68 -28 -20 -27 -39 4 -76 21 -25 25
-39 25 -99 0 -51 4 -71 14 -75 8 -3 17 -22 21 -42 4 -20 15 -45 26 -55 10 -10
19 -26 19 -37 0 -11 18 -38 40 -60 22 -22 40 -45 40 -50 0 -5 19 -22 42 -37
23 -16 52 -38 64 -50 14 -14 35 -23 52 -23 16 0 41 -9 55 -20 14 -11 30 -20
37 -20 7 0 23 -9 37 -20 14 -11 32 -20 39 -20 7 0 22 -9 33 -21 16 -18 22 -19
40 -8 17 12 23 10 44 -9 13 -12 32 -22 43 -22 10 -1 30 -7 44 -15 14 -8 45
-14 69 -15 27 0 52 -7 63 -16 10 -10 41 -21 69 -25 29 -5 62 -17 74 -29 18
-17 35 -20 107 -20 73 0 87 -3 104 -21 16 -18 26 -20 79 -15 33 3 67 5 75 5 8
-1 199 -3 425 -5 348 -3 413 -1 432 11 25 17 59 20 67 6 12 -19 47 -18 71 1
23 18 40 20 173 20 138 -1 148 1 170 21 22 20 35 22 180 25 128 3 158 6 168
19 9 13 35 17 129 19 95 2 121 6 137 20 26 25 132 28 170 6 25 -15 29 -14 49
4 19 17 36 19 149 19 119 0 130 2 152 23 23 21 33 22 160 22 126 0 137 1 149
21 13 19 23 20 262 21 234 1 248 2 258 20 15 27 4 48 -24 48 -13 0 -36 11 -51
25 -16 15 -39 25 -57 25 -16 0 -41 8 -55 17 -17 11 -54 18 -107 21 -63 3 -86
9 -100 23 -15 16 -33 19 -132 19 -93 0 -117 -3 -131 -17 -22 -23 -98 -32 -217
-25 -93 5 -99 4 -123 -19 -25 -23 -32 -24 -174 -25 -135 -1 -151 -3 -176 -23
-25 -20 -38 -21 -200 -21 -103 0 -184 -4 -201 -11 -38 -15 -189 -17 -216 -3
-17 10 -27 8 -56 -11 -32 -20 -50 -22 -176 -24 -115 -2 -143 -5 -158 -19 -16
-15 -48 -17 -222 -20 -186 -3 -204 -5 -221 -23 -16 -18 -32 -19 -270 -19 -239
0 -254 1 -264 19 -9 17 -24 20 -164 23 -129 2 -157 6 -173 21 -14 12 -36 17
-75 17 -49 0 -59 3 -76 26 l-19 27 -19 -21 c-20 -21 -20 -21 -37 -2 -10 12
-29 20 -46 20 -17 0 -47 11 -67 25 -20 14 -42 25 -49 25 -6 0 -20 9 -30 20
-10 11 -28 20 -39 20 -12 0 -39 18 -61 40 -22 21 -47 39 -55 40 -26 0 -60 30
-60 53 0 12 -19 41 -44 65 -43 43 -44 45 -51 128 -4 47 -4 112 0 145 4 36 2
92 -5 137 -11 71 -11 81 8 122 11 25 34 62 51 84 17 21 31 43 31 49 0 11 108
117 119 117 4 0 15 16 24 36 14 27 22 34 35 29 34 -14 44 -10 55 24 9 25 21
37 42 44 17 5 39 17 50 27 11 10 40 20 65 23 24 3 49 13 56 21 6 9 26 19 45
23 19 3 40 15 47 25 7 10 23 18 35 18 28 0 41 9 55 37 10 18 18 20 53 16 29
-4 44 -2 49 8 5 8 35 16 72 20 35 3 83 11 108 17 123 30 164 34 298 34 142 -2
146 -1 168 23 14 15 34 25 50 25 15 0 36 8 46 17 17 16 20 15 51 -14 17 -17
42 -36 53 -42 14 -7 116 -11 290 -11 148 0 294 -3 324 -6 30 -3 75 -5 99 -4
32 1 49 -4 63 -20 16 -17 31 -20 91 -20 61 0 75 -3 90 -21 15 -17 25 -19 70
-14 46 5 55 3 81 -19 21 -19 40 -26 71 -26 26 0 52 -7 66 -18 13 -11 46 -22
73 -26 28 -3 59 -15 70 -25 12 -10 42 -21 68 -23 26 -3 54 -13 63 -22 9 -9 29
-16 45 -16 17 0 34 -8 43 -20 8 -11 29 -23 48 -27 19 -3 40 -15 47 -25 8 -10
25 -18 42 -18 15 0 57 -16 92 -35 34 -19 78 -41 96 -49 18 -8 35 -22 38 -31 4
-8 18 -15 35 -15 15 0 34 -8 41 -18 7 -10 55 -39 107 -65 51 -26 117 -68 146
-92 40 -35 60 -45 87 -45 24 0 42 -8 58 -25 13 -14 29 -25 37 -25 7 0 13 -7
13 -15 0 -8 12 -18 28 -21 15 -4 34 -15 43 -26 8 -11 31 -23 50 -27 26 -5 38
-15 52 -44 12 -24 26 -37 38 -37 11 0 44 -20 75 -45 30 -25 63 -45 73 -45 9 0
27 -10 39 -22 51 -54 69 -68 86 -68 10 0 37 -20 60 -45 24 -25 51 -45 61 -45
9 0 37 -20 61 -45 23 -25 46 -45 50 -45 10 0 24 -13 111 -99 44 -44 80 -71 93
-71 13 0 48 -26 88 -65 42 -42 74 -65 89 -65 13 0 34 -13 50 -32 50 -59 97
-98 116 -98 24 0 57 -18 57 -31 0 -15 38 -46 75 -63 17 -7 46 -28 66 -47 55
-51 91 -75 124 -83 17 -4 38 -16 48 -27 10 -10 26 -19 36 -19 10 0 26 -9 36
-20 10 -11 28 -20 41 -20 13 0 31 -8 41 -18 30 -30 71 -52 96 -52 13 0 43 -14
66 -30 23 -17 55 -33 72 -37 17 -3 33 -12 36 -19 3 -8 22 -17 44 -20 21 -4 46
-15 55 -25 9 -11 29 -19 44 -19 17 0 33 -8 43 -22 12 -19 18 -21 28 -11 18 17
44 16 59 -2 7 -8 24 -15 39 -15 15 0 34 -9 44 -20 14 -17 29 -20 91 -20 62 0
77 -3 88 -19 9 -12 30 -20 64 -23 33 -3 58 -12 72 -26 19 -19 33 -21 151 -21
119 -1 133 -3 152 -22 19 -19 22 -20 46 -4 23 16 30 16 100 -1 58 -13 84 -15
121 -7 51 10 284 9 345 -2 21 -4 65 -2 102 6 47 9 74 10 99 2 28 -9 39 -8 58
6 15 10 55 18 111 22 72 5 92 10 108 28 11 12 32 21 48 21 15 0 36 9 46 20 10
11 28 20 40 20 12 0 33 8 46 18 44 32 67 41 87 35 13 -3 32 3 48 16 15 12 34
21 44 21 9 0 25 9 35 20 10 11 31 20 46 20 16 0 34 8 41 19 8 11 27 23 43 26
46 10 135 58 135 73 0 6 6 12 14 12 8 0 21 9 29 20 8 11 28 23 46 26 17 4 36
15 42 26 18 33 52 68 89 91 73 45 103 113 63 142 -11 8 -14 18 -9 31 7 18 8
18 26 -3 10 -13 22 -23 27 -23 5 0 21 25 37 56 15 30 37 63 48 73 18 17 19 33
19 225 0 193 -1 208 -20 232 -12 15 -21 40 -21 55 0 17 -9 37 -20 46 -11 10
-20 23 -20 31 0 20 -59 139 -76 153 -8 6 -14 22 -14 35 0 15 -19 41 -56 76
-31 29 -66 63 -77 76 -11 12 -27 22 -34 22 -7 0 -13 6 -13 14 0 25 -56 76 -84
76 -25 0 -53 23 -83 68 -10 14 -25 22 -43 22 -15 0 -35 9 -45 20 -10 11 -28
20 -41 20 -14 0 -37 15 -60 39 -37 41 -118 86 -172 97 -17 3 -33 12 -36 20 -3
7 -21 16 -40 19 -19 4 -42 16 -52 26 -9 10 -27 19 -39 19 -13 0 -28 7 -36 16
-20 25 -135 74 -173 74 -19 0 -41 6 -48 14 -21 20 -131 76 -151 76 -10 0 -30
9 -45 19 -15 10 -53 22 -85 25 -38 4 -64 13 -77 26 -14 14 -28 18 -43 15 -16
-4 -31 2 -50 19 -21 19 -39 26 -69 26 -28 0 -49 7 -63 20 -13 12 -48 25 -86
32 -35 6 -73 17 -84 24 -11 8 -31 14 -45 14 -14 0 -33 9 -43 20 -10 12 -29 20
-47 20 -19 0 -34 7 -42 20 -10 16 -24 20 -65 20 -41 0 -58 5 -74 21 -25 25
-139 43 -206 33 -34 -5 -44 -3 -49 10 -8 21 -24 20 -24 -1 0 -10 21 -41 48
-68 46 -50 87 -75 119 -75 9 0 34 -15 57 -34 23 -18 55 -36 73 -40 17 -4 37
-14 44 -22 7 -8 29 -14 54 -14 32 0 52 -7 73 -25 21 -18 42 -25 71 -25 23 0
50 -5 60 -12 15 -9 26 -9 44 -1 21 10 28 9 42 -7 11 -13 38 -21 81 -25 45 -5
64 -12 64 -21 0 -9 11 -14 28 -14 17 0 38 -10 52 -25 18 -19 34 -25 66 -25 31
0 49 -6 63 -21 14 -15 28 -20 45 -17 14 3 34 -1 43 -8 10 -7 32 -14 49 -14 17
0 37 -7 44 -15 7 -8 25 -15 40 -15 15 0 35 -9 45 -20 10 -11 30 -20 45 -20 17
0 33 -8 42 -21 7 -12 26 -23 42 -24 15 -2 38 -13 50 -24 18 -17 35 -21 83 -21
46 0 64 -4 77 -19 9 -10 46 -33 82 -51 36 -17 68 -38 71 -46 3 -8 16 -14 30
-14 13 0 34 -11 47 -25 13 -14 32 -25 43 -25 11 0 30 -9 42 -19 12 -10 35 -24
51 -31 16 -7 35 -25 42 -41 7 -16 28 -35 50 -45 21 -9 38 -21 38 -26 0 -4 6
-8 13 -8 20 0 127 -116 127 -139 0 -11 18 -37 40 -57 22 -21 40 -41 40 -46 0
-5 11 -26 25 -46 14 -20 25 -48 25 -63 0 -14 12 -39 26 -54 18 -19 24 -35 20
-50 -4 -14 1 -30 13 -44 21 -24 33 -137 28 -257 -2 -55 -8 -77 -25 -99 -12
-15 -22 -38 -22 -50 0 -12 -9 -30 -20 -40 -11 -10 -20 -28 -20 -40 0 -12 -20
-43 -45 -69 -25 -27 -45 -52 -45 -57 0 -5 -5 -9 -11 -9 -6 0 -51 -40 -100 -90
-61 -62 -96 -90 -112 -90 -14 0 -39 -16 -62 -40 -21 -22 -43 -40 -48 -40 -5 0
-16 -9 -25 -20 -11 -13 -35 -23 -67 -27 -31 -4 -55 -14 -65 -26 -10 -12 -33
-21 -65 -25 -33 -3 -55 -12 -63 -24 -7 -10 -17 -18 -23 -18 -5 0 -18 -9 -29
-20 -14 -14 -33 -20 -64 -20 -27 0 -48 -6 -56 -15 -9 -11 -30 -16 -69 -15 -31
1 -76 -4 -101 -10 -32 -8 -164 -10 -454 -6 -386 5 -410 7 -441 26 -24 15 -50
20 -97 20 -52 0 -68 4 -83 20 -14 16 -31 20 -81 20 -53 0 -67 4 -90 25 -21 20
-37 25 -77 25 -35 0 -53 5 -62 17 -16 21 -106 27 -131 8 -20 -14 -49 -1 -91
42 -15 16 -34 23 -58 23 -35 0 -98 36 -118 67 -4 7 -20 13 -36 13 -16 0 -37
10 -51 25 -13 14 -33 25 -44 25 -12 0 -43 21 -69 45 -26 25 -55 45 -63 45 -9
0 -38 18 -64 40 -26 22 -56 40 -66 40 -11 0 -48 29 -84 65 -38 37 -74 65 -86
65 -11 0 -32 12 -46 28 -55 59 -107 102 -125 102 -10 0 -41 23 -68 50 -36 36
-57 50 -77 50 -22 0 -32 8 -47 38 -14 28 -33 45 -70 63 -31 14 -63 40 -82 66
-21 28 -42 44 -63 48 -33 7 -126 98 -126 123 0 27 21 51 55 62 22 7 95 11 197
9 107 -2 170 2 184 9 12 6 34 11 50 11 16 0 63 5 104 11 41 6 107 13 145 16
46 4 78 13 94 25 16 13 40 19 72 19 38 0 51 4 59 20 7 14 21 20 44 20 19 0 40
8 50 19 11 13 37 20 83 24 57 6 71 11 100 39 42 40 49 63 29 93 -15 23 -22 25
-106 25 -79 0 -91 -2 -100 -20 -10 -18 -21 -20 -127 -20 -111 0 -117 -1 -139
-25 -23 -25 -24 -25 -203 -25 -158 0 -182 -2 -197 -17 -16 -17 -53 -18 -441
-21 -414 -3 -423 -2 -440 18 -12 14 -30 20 -56 20 -31 0 -46 8 -85 44 -26 25
-60 48 -74 51 -15 4 -32 13 -39 21 -6 8 -28 14 -49 14 -30 0 -39 5 -48 25 -8
18 -19 25 -39 25 -28 0 -193 103 -193 121 0 5 -13 9 -28 9 -16 0 -37 9 -46 19
-10 11 -31 23 -46 26 -15 3 -36 15 -46 26 -9 10 -25 19 -34 19 -10 0 -29 9
-44 21 -18 14 -34 19 -54 15 -21 -5 -35 1 -62 24 -19 16 -41 30 -47 30 -7 0
-18 9 -25 20 -8 12 -24 20 -39 20 -14 0 -34 9 -44 20 -10 11 -28 20 -41 20
-13 0 -35 11 -50 25 -15 14 -35 25 -46 25 -25 0 -121 49 -131 67 -5 8 -18 13
-30 12 -37 -2 -47 1 -47 15 0 7 -7 19 -15 26 -12 10 -20 9 -39 -3 -21 -14 -26
-14 -36 -2 -7 8 -25 15 -40 15 -15 0 -35 9 -44 19 -11 12 -38 21 -71 26 -29 3
-59 13 -66 21 -6 8 -29 17 -51 20 -23 4 -43 14 -49 25 -7 14 -17 17 -33 13
-25 -6 -74 14 -95 40 -8 9 -22 16 -32 16 -11 0 -28 14 -39 33 -19 30 -20 47
-18 303 3 235 5 274 19 290 9 11 20 39 24 64 5 31 17 56 40 80 38 41 65 93 65
127 0 23 23 32 35 13 13 -20 43 -9 70 26 15 20 41 40 56 46 16 6 34 19 40 29
6 13 21 19 44 19 18 0 40 6 47 13 7 8 26 17 42 21 17 4 41 15 55 25 25 18 104
33 169 33 22 -1 35 6 42 19 7 13 21 19 45 19 24 0 37 6 45 20 8 16 21 20 59
20 33 0 53 5 62 16 23 28 84 62 124 70 21 4 46 15 56 25 10 10 34 21 54 25 19
3 40 15 46 25 5 11 18 19 28 19 10 0 30 9 44 20 14 11 38 20 55 20 16 0 37 9
46 19 10 11 31 23 47 26 16 4 29 11 29 16 0 19 95 69 131 69 20 0 47 8 60 18
37 29 73 34 208 33 76 -1 137 4 158 11 27 10 38 10 53 0 11 -7 36 -12 55 -12
30 0 45 -10 102 -66 51 -50 71 -64 87 -60 17 4 31 -6 64 -44 41 -47 46 -50 91
-50 35 0 53 -5 66 -20 16 -18 31 -20 151 -20 123 0 135 2 146 20 10 15 24 20
60 20 37 0 51 5 60 20 8 13 24 20 43 20 22 0 43 12 77 45 26 25 57 45 69 45
12 0 39 18 63 43 22 23 56 50 74 60 29 16 35 16 62 2 16 -8 37 -15 47 -15 10
0 39 -27 65 -59 39 -49 49 -70 57 -120 6 -34 19 -73 30 -88 12 -14 21 -36 21
-49 0 -13 9 -28 20 -34 14 -8 20 -21 20 -45 0 -24 6 -37 20 -45 16 -9 20 -21
20 -63 0 -35 7 -62 19 -81 14 -21 22 -57 27 -119 6 -76 10 -90 25 -94 17 -5
19 -16 19 -84 0 -64 3 -80 18 -91 15 -10 20 -31 24 -99 4 -58 11 -95 23 -113
14 -21 18 -50 19 -127 1 -101 11 -126 43 -114 20 7 26 -15 10 -33 -12 -14 -14
-40 -10 -132 3 -100 7 -117 24 -129 16 -11 19 -25 19 -82 0 -59 3 -72 25 -95
21 -23 25 -36 25 -94 0 -54 4 -70 20 -85 15 -13 20 -31 21 -69 0 -28 4 -71 8
-96 l8 -45 3 40 c2 22 4 134 5 249 2 197 1 209 -18 227 -17 16 -19 22 -9 44 7
15 8 33 3 47 -5 13 -12 102 -16 198 -6 141 -11 182 -26 212 -15 30 -19 59 -19
152 0 108 -1 116 -22 131 -21 14 -23 25 -26 114 -3 83 -7 103 -23 117 -15 14
-19 31 -19 85 0 53 -4 72 -19 86 -15 15 -18 34 -19 122 -1 97 -3 106 -27 131
-14 14 -25 38 -25 51 0 14 -9 34 -19 43 -10 9 -22 37 -25 61 -4 24 -13 49 -21
55 -8 6 -17 31 -21 55 -5 39 -18 55 -119 154 -81 80 -120 111 -138 111 -13 0
-32 9 -42 20 -15 16 -31 20 -89 20 -60 0 -73 -3 -84 -20 -8 -13 -23 -20 -42
-20 -18 0 -37 -8 -47 -20 -10 -11 -29 -20 -44 -20 -28 0 -53 -21 -107 -89 -22
-27 -41 -41 -56 -41 -13 0 -35 -9 -49 -20 -14 -11 -37 -20 -52 -20 -14 0 -33
-7 -42 -16 -10 -9 -22 -12 -32 -8 -9 4 -43 10 -76 12 -40 2 -67 10 -80 22 -11
11 -40 22 -64 26 -41 7 -88 43 -114 90 -4 8 -25 23 -46 34 -21 10 -41 26 -44
35 -4 9 -19 15 -36 15 -20 0 -34 7 -41 19 -5 11 -24 22 -42 26 -18 4 -41 14
-50 22 -20 18 -228 27 -266 12z m-1282 -614 c0 -8 -4 -15 -10 -15 -5 0 -10 7
-10 15 0 8 5 15 10 15 6 0 10 -7 10 -15z m20 -95 c0 -5 -6 -10 -14 -10 -8 0
-18 5 -21 10 -3 6 3 10 14 10 12 0 21 -4 21 -10z m-190 -90 c0 -5 -2 -10 -4
-10 -3 0 -8 5 -11 10 -3 6 -1 10 4 10 6 0 11 -4 11 -10z m3300 0 c0 -5 -4 -10
-10 -10 -5 0 -10 5 -10 10 0 6 5 10 10 10 6 0 10 -4 10 -10z m-6255 -1749 c3
-5 1 -12 -5 -16 -5 -3 -10 1 -10 9 0 18 6 21 15 7z m4500 -310 c7 -12 -12 -24
-25 -16 -11 7 -4 25 10 25 5 0 11 -4 15 -9z m1660 -1231 c3 -5 1 -10 -4 -10
-6 0 -11 5 -11 10 0 6 2 10 4 10 3 0 8 -4 11 -10z"/>
<path d="M8150 7171 c0 -29 -5 -35 -150 -157 -14 -12 -63 -54 -109 -94 -65
-55 -90 -71 -108 -67 -13 2 -26 1 -28 -3 -2 -4 18 -35 45 -69 48 -60 50 -61
50 -32 0 32 2 34 239 236 108 92 116 96 149 90 34 -6 35 -6 21 13 -86 118
-109 136 -109 83z"/>
<path d="M7538 7055 c-3 -14 -1 -25 3 -25 5 0 9 11 9 25 0 14 -2 25 -4 25 -2
0 -6 -11 -8 -25z"/>
<path d="M8370 6916 c0 -29 -23 -48 -220 -180 -134 -91 -147 -97 -187 -94 -24
2 -43 1 -43 -2 0 -3 18 -32 40 -65 36 -54 40 -57 40 -33 0 37 53 95 142 155
39 26 96 65 126 85 58 39 88 41 53 4 -12 -12 -21 -28 -21 -36 0 -7 -45 -96
-101 -197 l-100 -184 18 -30 19 -29 90 62 c284 196 295 202 345 202 31 0 46 4
42 10 -4 6 -20 31 -37 56 l-30 44 -11 -26 c-6 -15 -22 -39 -35 -54 -26 -28
-188 -141 -218 -151 -9 -3 -27 -15 -39 -26 -13 -11 -26 -18 -29 -14 -4 3 40
92 97 196 96 175 106 190 132 191 l27 0 -46 70 c-26 39 -49 70 -50 70 -2 0 -4
-11 -4 -24z"/>
<path d="M1426 6630 c-25 -33 -46 -63 -46 -66 0 -4 13 -4 29 -1 23 5 39 -1 78
-31 26 -20 53 -41 59 -47 7 -5 66 -52 133 -104 105 -81 121 -97 121 -122 0
-16 4 -29 8 -29 8 0 240 308 245 324 2 9 -123 38 -131 31 -1 -1 4 -15 13 -31
19 -37 19 -65 -1 -112 -15 -38 -61 -92 -77 -92 -8 0 -121 86 -299 227 -50 40
-68 60 -68 78 0 43 -18 36 -64 -25z"/>
<path d="M2023 6603 c9 -2 23 -2 30 0 6 3 -1 5 -18 5 -16 0 -22 -2 -12 -5z"/>
<path d="M4890 6560 c-19 -10 -48 -24 -64 -32 -17 -7 -45 -28 -63 -45 -18 -19
-43 -33 -56 -33 -13 0 -34 -11 -47 -25 -13 -14 -33 -25 -44 -25 -13 -1 -32
-16 -48 -40 -16 -24 -36 -40 -47 -40 -11 0 -22 -4 -26 -9 -9 -15 -86 -65 -123
-80 -18 -7 -44 -13 -59 -13 -14 0 -52 -18 -82 -39 -31 -22 -63 -39 -72 -39 -9
0 -24 -9 -34 -20 -10 -11 -30 -20 -46 -20 -15 0 -51 -11 -81 -25 -40 -19 -70
-25 -122 -25 -58 0 -74 -4 -93 -22 -20 -18 -37 -22 -126 -26 l-102 -4 -47 -45
c-42 -42 -46 -49 -41 -82 8 -49 20 -63 44 -50 21 11 39 5 39 -14 0 -7 5 -19
10 -27 8 -13 12 -12 25 8 14 19 25 22 91 22 62 0 81 4 112 25 28 18 49 24 89
23 36 -1 58 4 71 15 9 9 35 17 57 18 22 1 50 8 63 16 14 9 34 12 51 8 19 -4
32 -1 41 10 7 8 18 15 24 15 6 0 36 17 66 38 31 21 69 42 85 46 16 4 40 15 54
25 14 10 38 21 54 25 15 3 27 13 27 20 0 15 21 26 50 26 11 0 44 26 74 57 44
46 52 59 40 66 -8 4 -12 13 -8 18 3 6 11 3 18 -7 21 -28 59 -10 110 55 25 33
56 63 69 67 33 10 106 95 121 141 4 12 13 27 21 33 40 33 -16 40 -75 10z
m-860 -610 c0 -5 -7 -10 -15 -10 -8 0 -15 5 -15 10 0 6 7 10 15 10 8 0 15 -4
15 -10z m-130 -40 c0 -5 -4 -10 -10 -10 -5 0 -10 5 -10 10 0 6 5 10 10 10 6 0
10 -4 10 -10z"/>
<path d="M1169 6238 c-56 -95 -104 -177 -107 -182 -3 -5 9 -6 28 -3 28 6 46 0
112 -39 43 -25 78 -47 78 -49 0 -2 -5 -16 -10 -30 -6 -17 -7 -33 -1 -43 10
-18 9 -20 26 33 5 17 35 21 35 5 0 -5 6 -10 13 -10 8 0 46 -21 86 -46 56 -36
73 -53 78 -76 4 -21 9 -26 17 -18 6 6 59 91 117 188 l105 177 -60 5 c-34 3
-64 4 -68 2 -4 -1 0 -18 8 -37 20 -50 18 -79 -13 -137 -16 -28 -32 -59 -38
-69 -5 -11 -13 -19 -17 -19 -9 0 -168 98 -187 116 -12 11 -12 18 -1 44 23 55
49 80 83 80 27 0 29 2 17 14 -8 7 -37 26 -64 42 -41 23 -48 25 -43 10 20 -51
18 -66 -9 -110 -16 -25 -33 -45 -38 -46 -11 0 -154 89 -162 101 -7 12 51 105
85 137 15 14 36 22 57 22 19 0 34 3 34 7 0 13 -45 102 -52 103 -4 0 -53 -78
-109 -172z"/>
<path d="M8495 6379 c-158 -55 -246 -166 -232 -291 8 -65 48 -132 99 -166 36
-23 52 -27 117 -27 66 0 86 4 141 32 80 40 136 92 166 158 31 66 30 107 -5
180 -33 69 -57 91 -123 117 -61 23 -89 22 -163 -3z m212 -70 c53 -20 78 -110
48 -169 -31 -60 -174 -147 -282 -171 -93 -21 -161 16 -175 95 -14 75 50 153
177 214 99 49 161 57 232 31z"/>
<path d="M8613 6283 c9 -2 25 -2 35 0 9 3 1 5 -18 5 -19 0 -27 -2 -17 -5z"/>
<path d="M3816 3005 c-22 -33 -1 -33 39 0 l30 24 -26 1 c-18 0 -32 -9 -43 -25z"/>
<path d="M2780 2901 c0 -5 7 -12 16 -15 13 -5 15 -28 12 -165 -3 -140 -5 -162
-22 -180 -41 -45 -84 -17 -101 64 l-11 57 -28 -24 -29 -24 18 -38 c10 -20 31
-44 47 -52 43 -22 125 -16 157 12 l26 22 -4 161 c-2 113 0 161 8 161 6 0 11 7
11 15 0 11 -12 15 -50 15 -27 0 -50 -4 -50 -9z"/>
<path d="M3056 2894 c-43 -16 -59 -31 -86 -89 -20 -41 -26 -115 -13 -175 8
-41 87 -126 126 -135 38 -10 107 2 135 23 46 36 67 226 31 294 -19 38 -52 69
-88 84 -41 17 -55 17 -105 -2z m84 -19 c0 -3 -10 -10 -22 -16 -21 -9 -21 -9 5
-6 17 3 37 -3 50 -13 19 -16 22 -30 26 -110 3 -101 -15 -172 -49 -190 -54 -29
-115 -1 -139 63 -30 78 -2 238 46 266 18 11 83 15 83 6z"/>
<path d="M3043 2690 c0 -30 2 -43 4 -27 2 15 2 39 0 55 -2 15 -4 2 -4 -28z"/>
<path d="M3405 2898 c-36 -19 -55 -52 -55 -94 0 -48 32 -90 77 -99 74 -17 125
-39 143 -62 62 -79 -32 -153 -133 -104 -26 13 -49 33 -56 49 l-13 27 -19 -39
c-24 -49 -24 -46 7 -46 14 0 54 -7 87 -16 74 -19 123 -9 162 34 27 29 34 96
15 133 -13 22 -71 54 -120 64 -108 22 -140 99 -59 140 38 20 90 6 109 -30 17
-32 26 -31 44 3 l15 28 -45 12 c-55 15 -132 15 -159 0z"/>
<path d="M3723 2893 c12 -14 17 -37 17 -80 0 -55 -3 -63 -27 -82 l-28 -20 26
-1 27 0 -3 -82 c-3 -65 -7 -85 -21 -95 -15 -11 -2 -13 87 -13 57 -1 121 -3
142 -6 60 -9 70 -1 49 38 -9 18 -18 35 -20 38 -2 3 -11 -5 -20 -17 -22 -28
-62 -43 -118 -43 l-44 0 0 90 0 90 49 0 c34 0 51 -4 55 -15 11 -30 26 -14 26
30 l0 46 -28 -21 c-19 -14 -38 -19 -62 -17 l-35 4 -3 66 c-3 78 7 88 81 80 35
-4 53 -12 67 -31 11 -14 22 -23 23 -21 21 30 37 62 33 66 -3 3 -70 8 -148 11
-142 5 -143 4 -125 -15z"/>
<path d="M4270 2902 c0 -6 4 -13 9 -16 11 -7 2 -338 -10 -351 -21 -22 -4 -27
91 -23 115 4 141 17 178 88 16 32 22 62 22 107 0 98 -33 159 -99 181 -49 17
-191 27 -191 14z m176 -41 c35 -21 54 -73 54 -145 0 -121 -46 -190 -124 -184
-25 2 -41 8 -40 16 1 6 2 84 3 172 l1 160 38 0 c20 0 51 -8 68 -19z"/>
<path d="M2320 2896 c0 -2 6 -19 14 -38 15 -35 21 -254 7 -262 -4 -3 -21 23
-39 57 -19 34 -52 97 -75 140 -35 65 -39 80 -27 87 10 7 -4 10 -44 10 -48 0
-56 -2 -47 -14 18 -21 20 -338 2 -359 -12 -16 -9 -17 39 -17 l52 0 -23 19
c-21 17 -24 29 -30 152 -4 76 -3 138 2 144 6 5 9 3 9 -6 0 -8 7 -24 15 -34 9
-11 46 -76 84 -145 50 -93 72 -125 87 -125 18 0 19 11 24 180 3 99 9 188 14
198 7 14 3 17 -28 17 -20 0 -36 -2 -36 -4z"/>
<path d="M1759 2888 c0 -2 -1 -23 -3 -48 -3 -63 -33 -123 -58 -117 -25 7 -37
-22 -15 -35 10 -5 17 -20 17 -33 0 -31 -42 -126 -63 -144 -29 -24 -19 -32 34
-27 57 6 70 13 50 25 -21 13 -13 141 9 141 4 0 22 -17 40 -37 l33 -37 28 35
c15 18 29 32 32 29 2 -3 14 -27 27 -54 19 -39 21 -52 11 -67 -10 -18 -7 -19
49 -19 58 0 79 13 41 25 -12 3 -29 31 -45 70 -31 79 -32 95 -5 102 12 4 18 11
15 20 -3 8 -6 17 -6 19 0 2 -9 4 -20 4 -11 0 -20 -4 -20 -10 0 -29 -20 -2 -44
60 -23 57 -26 73 -16 85 11 13 5 15 -39 15 -28 0 -51 -1 -52 -2z m67 -236
l-26 -27 -32 32 -32 33 18 52 c10 29 20 60 23 68 3 9 19 -13 41 -58 l35 -74
-27 -26z"/>
<path d="M4653 2879 c14 -8 17 -24 17 -83 0 -69 -1 -73 -27 -83 l-28 -11 28
-1 27 -1 0 -80 c0 -69 -3 -82 -22 -100 l-22 -20 100 0 c54 -1 125 -3 158 -6
32 -4 56 -2 54 2 -3 5 -11 24 -18 42 -17 38 -23 39 -43 8 -18 -27 -70 -40
-122 -30 l-35 6 0 67 c0 97 6 111 45 111 18 0 44 -9 59 -21 l26 -20 0 47 0 48
-21 -23 c-17 -18 -28 -22 -52 -17 -16 3 -34 6 -39 6 -5 0 -8 33 -6 73 l3 72
51 3 c46 3 55 0 83 -29 18 -17 33 -30 35 -28 2 2 11 18 19 35 l16 31 -82 6
c-128 10 -225 8 -204 -4z"/>
<path d="M5200 2876 c0 -4 6 -17 14 -29 11 -18 12 -50 4 -172 -5 -82 -13 -159
-18 -171 -8 -20 -5 -21 73 -28 45 -3 108 -6 141 -6 51 0 57 2 51 18 -4 9 -11
29 -17 44 l-10 28 -33 -35 c-33 -36 -61 -43 -114 -28 l-24 6 5 163 c4 112 9
168 18 179 7 9 10 18 7 21 -9 9 -97 18 -97 10z"/>
<path d="M1286 2829 c-28 -24 -36 -39 -36 -66 0 -73 35 -106 126 -118 68 -9
99 -24 118 -56 22 -37 20 -56 -9 -84 -45 -46 -157 -27 -188 30 l-13 25 -16
-44 -16 -43 94 -7 c115 -9 155 2 184 48 33 55 23 121 -25 152 -14 9 -56 23
-92 31 -89 18 -113 34 -113 77 0 80 109 99 156 28 l18 -27 12 30 c22 50 20 51
-75 54 -87 2 -90 1 -125 -30z"/>
<path d="M1121 2841 c-11 -7 -11 -18 0 -65 15 -67 29 -57 29 22 0 53 -4 59
-29 43z"/>
<path d="M5694 2817 c0 -18 -11 -54 -23 -80 -19 -39 -27 -47 -43 -41 -31 9
-42 -17 -16 -37 l20 -16 -27 -62 c-16 -34 -41 -72 -56 -85 l-28 -24 37 -6 c20
-3 47 -6 59 -6 20 0 21 2 8 28 -12 24 -12 35 0 75 21 70 24 72 58 28 17 -23
34 -41 38 -41 3 0 14 9 24 20 10 11 24 20 31 20 18 0 49 -99 35 -113 -21 -21
-11 -27 39 -27 49 0 59 7 40 26 -12 12 -50 130 -50 155 0 12 7 19 20 19 21 0
24 8 14 34 -5 12 -10 13 -26 5 -11 -6 -23 -7 -28 -2 -15 17 -41 123 -35 143 6
18 2 20 -42 20 -48 0 -48 0 -49 -33z m36 -55 c0 -10 4 -22 8 -27 5 -6 15 -29
22 -53 13 -40 12 -44 -10 -67 -13 -14 -27 -25 -31 -25 -4 0 -17 16 -30 36 -23
39 -24 35 12 132 10 26 29 29 29 4z"/>
<path d="M1020 2813 c0 -34 21 -94 31 -88 5 4 9 28 9 56 0 42 -3 49 -20 49
-12 0 -20 -7 -20 -17z"/>
<path d="M6200 2821 c0 -6 5 -13 11 -17 9 -5 10 -43 5 -133 -8 -144 -18 -201
-41 -217 -13 -9 -9 -12 22 -17 20 -4 38 -5 39 -4 2 1 0 18 -5 37 -11 53 -1
262 13 257 6 -2 12 -17 14 -33 2 -16 8 -33 13 -38 5 -6 9 -17 9 -26 0 -9 9
-46 19 -81 11 -35 22 -76 25 -91 11 -50 30 -29 75 80 70 171 75 182 83 182 4
0 6 -26 3 -57 -2 -32 -7 -94 -10 -137 -3 -43 -10 -84 -15 -91 -8 -9 1 -14 37
-19 52 -7 61 -3 43 19 -18 22 -4 311 17 343 8 13 13 25 11 27 -2 2 -27 5 -55
6 -51 4 -57 0 -45 -29 8 -23 -94 -260 -107 -246 -4 5 -22 62 -40 128 -25 94
-29 121 -19 133 9 11 9 16 -3 24 -19 12 -99 12 -99 0z"/>
<path d="M6728 2770 c-26 -14 -44 -35 -63 -75 -23 -47 -27 -64 -23 -124 4 -81
31 -128 91 -162 31 -17 50 -20 90 -16 43 4 56 10 88 44 88 95 71 286 -31 338
-40 20 -108 18 -152 -5z m145 -26 c27 -32 35 -55 36 -119 1 -74 -25 -166 -55
-192 -45 -41 -123 -20 -143 38 -26 76 -6 231 36 273 36 36 94 36 126 0z"/>
<path d="M8372 2778 c-19 -19 -14 -29 12 -22 16 4 34 0 48 -10 32 -22 75 -20
88 4 11 21 4 25 -20 10 -10 -6 -24 -3 -46 11 -36 22 -65 24 -82 7z"/>
<path d="M7074 2745 c8 -15 13 -33 10 -39 -2 -6 -8 -74 -14 -150 -7 -99 -14
-144 -25 -156 -20 -22 -10 -30 38 -30 38 0 39 1 24 18 -18 20 -23 144 -11 250
7 52 24 73 24 28 0 -13 7 -29 15 -36 8 -7 15 -17 15 -23 0 -6 14 -42 31 -81
17 -39 40 -92 52 -118 15 -36 26 -48 42 -48 19 0 23 7 29 46 3 26 6 77 6 113
0 88 16 180 35 201 23 25 19 30 -25 30 -38 0 -52 -12 -30 -25 14 -8 12 -146
-3 -224 l-13 -64 -62 147 c-50 117 -61 151 -51 162 9 11 7 14 -14 14 -13 0
-39 3 -56 6 l-31 7 14 -28z"/>
<path d="M3293 2710 c0 -30 2 -43 4 -27 2 15 2 39 0 55 -2 15 -4 2 -4 -28z"/>
<path d="M7414 2710 c10 -40 10 -40 23 -16 13 26 53 40 84 31 23 -8 24 -40 8
-218 -7 -84 -16 -128 -27 -139 -14 -17 -12 -18 43 -18 51 0 56 2 45 15 -8 10
-13 41 -11 83 2 86 21 255 30 265 14 15 73 -5 83 -29 6 -13 14 -24 17 -24 12
0 40 60 31 65 -9 6 -235 24 -301 25 l-36 0 11 -40z"/>
<path d="M7946 2683 c4 -21 -2 -45 -20 -81 -25 -50 -46 -74 -46 -53 0 17 -27
13 -34 -5 -4 -10 1 -22 11 -29 16 -12 16 -15 0 -57 -10 -25 -33 -63 -52 -85
-39 -46 -34 -53 37 -53 l40 0 -16 25 c-15 22 -15 28 0 72 9 26 19 52 24 56 7
8 54 -40 63 -65 3 -10 11 -7 28 8 42 37 46 36 64 -22 16 -52 16 -56 0 -75 -18
-19 -17 -19 46 -19 55 1 61 3 47 14 -9 7 -22 30 -27 52 -5 21 -14 57 -20 78
-11 45 -8 56 19 56 13 0 17 5 13 21 -4 15 -12 19 -31 17 -24 -3 -27 2 -45 62
-14 49 -16 69 -8 82 9 15 8 18 -6 18 -10 0 -35 3 -56 6 -37 7 -37 6 -31 -23z
m54 -126 c12 -38 20 -69 19 -70 -2 -1 -16 -13 -31 -26 l-26 -23 -27 42 -27 42
28 59 c16 32 31 55 35 51 4 -4 17 -38 29 -75z"/>
<path d="M8299 2656 c17 -20 -12 -308 -34 -342 -20 -31 -20 -30 28 -39 41 -8
45 -1 21 34 -15 21 -16 34 -5 117 6 51 11 109 11 128 0 20 5 36 10 36 6 0 10
-1 10 -2 0 -2 29 -75 64 -163 52 -130 68 -161 85 -163 12 -2 23 3 26 10 3 7
11 79 19 159 10 119 17 153 35 183 l23 36 -42 0 c-37 0 -41 -2 -34 -17 11 -24
6 -147 -10 -230 -10 -51 -15 -63 -21 -48 -4 11 -30 76 -56 144 -52 131 -57
151 -36 151 8 0 7 4 -3 10 -8 5 -35 10 -59 10 -36 0 -41 -2 -32 -14z"/>
<path d="M8816 2605 c7 -16 -17 -73 -48 -118 -16 -23 -23 -26 -35 -16 -12 10
-16 10 -24 -2 -12 -20 -11 -26 6 -33 8 -3 15 -14 15 -24 0 -22 -49 -101 -81
-131 -20 -19 -21 -23 -9 -31 8 -5 32 -10 54 -10 33 0 37 2 30 18 -4 9 -7 28
-7 42 0 31 29 100 41 100 4 0 18 -18 31 -40 25 -46 31 -48 56 -20 10 11 23 20
30 20 17 0 39 -74 32 -108 -7 -35 4 -42 65 -42 38 0 40 1 26 18 -19 22 -28 44
-43 114 -13 61 -12 68 17 68 19 0 23 16 10 36 -4 6 -18 11 -31 10 -19 -1 -26
7 -38 44 -7 25 -12 62 -9 83 l4 37 -49 0 c-39 0 -47 -3 -43 -15z m34 -100 c21
-46 28 -94 17 -107 -35 -41 -45 -41 -72 0 l-26 40 32 63 c24 47 34 59 36 44 2
-11 8 -29 13 -40z"/>
<path d="M9130 2518 c0 -65 9 -68 29 -9 17 51 14 71 -9 71 -18 0 -20 -7 -20
-62z"/>
<path d="M9220 2509 c0 -66 13 -71 30 -11 15 55 13 72 -10 72 -18 0 -20 -7
-20 -61z"/>
</g>
</svg>
